<svg xmlns="http://www.w3.org/2000/svg" viewBox="0 0 500 230"><path d="M44.3-191.7c-14-.2-26.2-11.8-25.7-27.3.4-12.5 9-24.3 21.7-26.3 8.1-1.2 17.9 1.1 23.5 7.3 1.3 1.6-.7 3.3-2 1.9-5-5.6-13.8-7.6-21.1-6.5-11.4 1.8-19.1 12.5-19.5 23.7-.3 13.7 10.6 24.3 23.2 24.5 7.1.1 14.7-3 18.8-9v-13.7H45.7c-1.6 0-1.6-2.5 0-2.5h18.5c1.1 0 1.5.7 1.5 1.6v14.6c0 .7-.1 1.4-.6 1.9-4.8 6.4-12.9 9.9-20.8 9.8zm30.8-27.8c.4-12.7 8.3-23.9 21.2-26 2.9-.4 6-.4 8.9 0 13 2.1 21.8 13.3 22.1 26 .5 15.8-11.8 28-26.1 28-14.2 0-26.5-12.2-26.1-28zm2.8.1c-.4 14.1 10.6 25.3 23.3 25.3 12.8 0 23.8-11.2 23.4-25.3-.3-11.5-8.2-21.6-19.8-23.5-2.6-.4-5.4-.4-8 0-11.7 1.8-18.6 12-18.9 23.5zm96.9-25.3c2 0 2 2.5 0 2.5h-21.2l.1 48.5c0 1.1-.8 1.6-1.5 1.6s-1.4-.5-1.4-1.6v-48.5h-21.2c-2 0-2-2.5 0-2.5h45.2z"/><path d="M294.8 115.7L263 146.8V27.3c0-2.8-1.3-4.1-3-4.1s-3.6 1.3-3.6 4.1l.4 119.5-31-31.1c-3.7-3.7-8.1.9-4.5 4.6l39.3 39.3c28-28 11.6-11.4 39.5-39.3 3.7-3.7-1.7-8.3-5.3-4.6z" fill="#43DEA4"/><path d="M110.4 194.4c-36.9-.4-68.8-31-67.7-71.8 1.1-33 23.7-63.8 57.1-69.2 21.3-3.2 47 3 61.7 19.2 3.5 4.1-1.7 8.6-5.2 5-13.1-14.7-36.2-20-55.4-17-30 4.7-50.2 32.8-51.3 62.3-.9 36 27.8 63.8 61 64.5 18.8.2 38.6-8 49.4-23.7v-36h-45.9c-4.1 0-4.1-6.5 0-6.5h48.5c3 0 3.9 1.7 3.9 4.1v38.4c0 1.7-.2 3.7-1.5 5-12.7 16.6-33.9 25.9-54.6 25.7zm218-73.1c-.8-30.9-21.4-58.4-51.3-66.7-.6 2.3-1.2 4.3-1.5 6.8 27 7.3 44.9 32.2 45.7 60.1 1.1 37.1-27.8 66.6-61.4 66.6-33.4 0-62.3-29.5-61.2-66.6.8-29.2 17-54.9 45.5-60.9-.5-2.3-.9-4.6-1.6-6.7-30.8 7.4-50.2 35.7-51.2 67.4-1.1 41.6 31.3 73.5 68.5 73.5 37.4 0 69.8-31.9 68.5-73.5zm125-66.4c5.2 0 5.2 6.5 0 6.5h-55.8l.2 127.6c0 2.8-2.2 4.1-3.9 4.1s-3.7-1.3-3.7-4.1V61.4h-55.6c-5.2 0-5.2-6.5 0-6.5h118.8z" fill="#8085BB"/></svg>