<svg height="172" width="416" xmlns="http://www.w3.org/2000/svg"><path d="M252.8 92.7L221 123.8V4.3c0-2.8-1.3-4.1-3-4.1s-3.6 1.3-3.6 4.1l.4 119.5-31-31.1c-3.7-3.7-8.1.9-4.5 4.6l39.3 39.3c28-28 11.6-11.4 39.5-39.3 3.7-3.7-1.7-8.3-5.3-4.6z" fill="#43dea4"/><path d="M68.4 171.4C31.5 171-.4 140.4.7 99.6c1.1-33 23.7-63.8 57.1-69.2 21.3-3.2 47 3 61.7 19.2 3.5 4.1-1.7 8.6-5.2 5-13.1-14.7-36.2-20-55.4-17-30 4.7-50.2 32.8-51.3 62.3-.9 36 27.8 63.8 61 64.5 18.8.2 38.6-8 49.4-23.7v-36H72.1c-4.1 0-4.1-6.5 0-6.5h48.5c3 0 3.9 1.7 3.9 4.1v38.4c0 1.7-.2 3.7-1.5 5-12.7 16.6-33.9 25.9-54.6 25.7zm218-73.1c1.3 41.6-31.1 73.5-68.5 73.5-37.2 0-69.6-31.9-68.5-73.5 1-31.7 20.4-60 51.2-67.4.7 2.1 1.1 4.4 1.6 6.7-28.5 6-44.7 31.7-45.5 60.9-1.1 37.1 27.8 66.6 61.2 66.6 33.6 0 62.5-29.5 61.4-66.6-.8-27.9-18.7-52.8-45.7-60.1.3-2.5.9-4.5 1.5-6.8 29.9 8.3 50.5 35.8 51.3 66.7zm125-66.4c5.2 0 5.2 6.5 0 6.5h-55.8l.2 127.6c0 2.8-2.2 4.1-3.9 4.1s-3.7-1.3-3.7-4.1V38.4h-55.6c-5.2 0-5.2-6.5 0-6.5z" fill="#8085bb"/></svg>